<?xml version="1.0" encoding="UTF-8" standalone="no"?>
<!-- Generator: Adobe Illustrator 16.0.0, SVG Export Plug-In . SVG Version: 6.00 Build 0)  -->

<svg
   xmlns:dc="http://purl.org/dc/elements/1.1/"
   xmlns:cc="http://creativecommons.org/ns#"
   xmlns:rdf="http://www.w3.org/1999/02/22-rdf-syntax-ns#"
   xmlns:svg="http://www.w3.org/2000/svg"
   xmlns="http://www.w3.org/2000/svg"
   xmlns:xlink="http://www.w3.org/1999/xlink"
   xmlns:sodipodi="http://sodipodi.sourceforge.net/DTD/sodipodi-0.dtd"
   xmlns:inkscape="http://www.inkscape.org/namespaces/inkscape"
   version="1.1"
   id="MAIN"
   x="0px"
   y="0px"
   width="512"
   height="512"
   viewBox="0 0 512 512"
   enable-background="new 0 0 1280 1280"
   xml:space="preserve"
   sodipodi:docname="sh.ppy.Osu2.svg"
   inkscape:version="0.92.2 2405546, 2018-03-11"><metadata
   id="metadata20"><rdf:RDF><cc:Work
       rdf:about=""><dc:format>image/svg+xml</dc:format><dc:type
         rdf:resource="http://purl.org/dc/dcmitype/StillImage" /><dc:title></dc:title></cc:Work></rdf:RDF></metadata><defs
   id="defs18" /><sodipodi:namedview
   pagecolor="#ffffff"
   bordercolor="#666666"
   borderopacity="1"
   objecttolerance="10"
   gridtolerance="10"
   guidetolerance="10"
   inkscape:pageopacity="0"
   inkscape:pageshadow="2"
   inkscape:window-width="1920"
   inkscape:window-height="1027"
   id="namedview16"
   showgrid="false"
   inkscape:zoom="0.184375"
   inkscape:cx="-779.8072"
   inkscape:cy="256"
   inkscape:window-x="0"
   inkscape:window-y="25"
   inkscape:window-maximized="1"
   inkscape:current-layer="MAIN" />
<circle
   cx="256"
   cy="256"
   id="ellipse2"
   r="256"
   style="fill:#ffffff;stroke-width:0.40638953" />
<g
   id="Pink"
   transform="matrix(0.40642985,0,0,0.40634921,-4.0643,-4.06349)">
	<defs
   id="defs5">
		<ellipse
   id="CLIP"
   cx="640.125"
   cy="639.875"
   rx="601.875"
   ry="602.125" />
	</defs>
	<clipPath
   id="CLIP_1_">
		<use
   xlink:href="#CLIP"
   overflow="visible"
   id="use7"
   style="overflow:visible"
   x="0"
   y="0"
   width="100%"
   height="100%" />
	</clipPath>
	<rect
   id="Bottom"
   clip-path="url(#CLIP_1_)"
   width="1280"
   height="1280"
   x="0"
   y="0"
   style="fill:#f58aab" />
	<path
   id="Top"
   clip-path="url(#CLIP_1_)"
   d="M 0,0 H 1280 V 334.5 C 972,598.5 526,790.5 0,838.5 Z"
   inkscape:connector-curvature="0"
   style="fill:#fab6d4" />
</g>
<path
   id="BackTXT"
   d="m 158.74703,258.68719 c 0,16.81107 -4.30694,30.08162 -12.91919,39.81044 -8.61387,9.73043 -20.14876,14.59443 -34.60506,14.59443 -14.58027,0 -26.16148,-4.864 -34.74325,-14.59443 -8.58217,-9.72841 -12.87326,-22.99937 -12.87326,-39.81044 0,-16.81108 4.29109,-30.09585 12.87326,-39.85676 8.58177,-9.75929 20.16298,-14.63995 34.74325,-14.63995 14.4563,0 25.99119,4.88106 34.60506,14.63995 8.61266,9.76091 12.91919,23.04609 12.91919,39.85676 z m -17.90202,-0.77613 c 0,-13.34654 -2.61578,-23.2643 -7.84369,-29.75451 -5.22953,-6.48899 -12.48959,-9.73369 -21.77813,-9.73369 -9.41251,0 -16.7185,3.2447 -21.91673,9.73369 -5.19905,6.49021 -7.79777,16.40797 -7.79777,29.75451 0,12.91662 2.61416,22.71248 7.84369,29.38514 5.22832,6.6747 12.51845,10.01042 21.8704,10.01042 9.22799,0 16.47179,-3.30565 21.73221,-9.91777 5.25961,-6.61089 7.89002,-16.43723 7.89002,-29.47779 z m 118.39586,22.75027 c 0,9.48176 -3.89197,17.25969 -11.67388,23.33217 -7.78313,6.07411 -18.40965,9.10994 -31.8828,9.10994 -7.62909,0 -14.6266,-0.9151 -20.99373,-2.74204 -6.36753,-1.82736 -11.70518,-3.82578 -16.01089,-5.9965 v -19.61326 h 0.923 c 5.47502,4.15249 11.56537,7.45245 18.27146,9.89948 6.70487,2.44866 13.13419,3.67178 19.28672,3.67178 7.62747,0 13.59549,-1.23896 17.90242,-3.7181 4.30531,-2.47832 6.4598,-6.38212 6.4598,-11.71261 0,-4.0895 -1.1693,-7.1875 -3.50668,-9.29524 -2.3386,-2.10651 -6.82883,-3.9042 -13.47274,-5.39185 -2.46134,-0.55751 -5.67498,-1.20807 -9.64336,-1.95169 -3.96798,-0.74362 -7.58276,-1.549 -10.84274,-2.41737 -9.04347,-2.41656 -15.45693,-5.96358 -19.24039,-10.64351 -3.78345,-4.6783 -5.67498,-10.42529 -5.67498,-17.24343 0,-4.2756 0.87667,-8.30333 2.63001,-12.08401 1.75293,-3.77945 4.41342,-7.15784 7.98228,-10.13232 3.4449,-2.9123 7.82784,-5.21996 13.14963,-6.925 5.32058,-1.70382 11.27274,-2.55634 17.8565,-2.55634 6.15091,0 12.37985,0.75987 18.68683,2.27718 6.30535,1.51934 11.54952,3.36254 15.73371,5.53122 v 18.68354 h -0.923 c -4.42927,-3.28371 -9.81365,-6.05623 -16.14908,-8.31919 -6.33706,-2.26174 -12.55015,-3.39302 -18.6405,-3.39302 -6.33705,0 -11.68933,1.22433 -16.05682,3.67137 -4.36913,2.44906 -6.55206,6.08873 -6.55206,10.92226 0,4.27601 1.32212,7.49877 3.96797,9.66786 2.58368,2.1695 6.76666,3.9363 12.55015,5.29838 3.1982,0.74362 6.7825,1.48724 10.75048,2.23086 3.96838,0.74362 7.27428,1.42629 9.92014,2.04516 8.05869,1.85905 14.27178,5.05132 18.6405,9.5744 4.36749,4.58768 6.55205,10.66016 6.55205,18.21988 z m 110.27458,29.5233 h -17.34886 v -11.5265 c -5.84569,4.64783 -11.44263,8.21191 -16.79531,10.69024 -5.35187,2.47792 -11.2577,3.71809 -17.7179,3.71809 -10.82851,0 -19.25624,-3.33084 -25.28441,-9.99294 -6.0302,-6.66087 -9.04388,-16.43723 -9.04388,-29.32784 v -69.5552 h 17.34887 v 61.28274 c 0,5.26791 0.24548,9.77635 0.73807,13.52452 0.49178,3.7502 1.53712,6.9571 3.13805,9.62113 1.66067,2.72742 3.81353,4.7104 6.45939,5.94936 2.64464,1.24018 6.49028,1.85905 11.53529,1.85905 4.49024,0 9.39666,-1.17679 14.71886,-3.53199 5.32057,-2.35479 10.28877,-5.35934 14.90337,-9.01689 v -79.68792 h 17.34887 v 105.99415 z m 64.59593,-138.50209 -2.39956,100.7746 h -15.68738 l -2.58368,-100.7746 z m -0.923,136.49148 h -18.82502 v -19.46291 h 18.82502 z"
   inkscape:connector-curvature="0"
   style="opacity:0.6;fill:#ffffff;stroke-width:0.40638953" />
<path
   id="InterTXT"
   d="m 434.11178,171.68254 -0.041,1.6254 H 413.481 l -0.0406,-1.6254 z m -20.58567,3.25079 0.0407,1.6254 h 20.42757 l 0.0406,-1.6254 z m 0.0813,3.2508 0.0406,1.62539 h 20.26866 l 0.0411,-1.62539 z m 0.0854,3.25079 0.0406,1.6254 h 20.10649 l 0.0407,-1.6254 z m 0.0813,3.25079 0.0406,1.6254 h 19.94757 l 0.0407,-1.6254 z m 0.0853,3.2508 0.0407,1.62539 h 19.785 l 0.0411,-1.62539 z m 0.0813,3.25079 0.0406,1.6254 h 19.6265 l 0.0406,-1.6254 z m 0.0854,3.2508 0.0406,1.62539 h 19.46393 l 0.0411,-1.62539 z m 0.0813,3.25079 0.0411,1.6254 h 19.30541 l 0.0407,-1.6254 z m 0.0854,3.25079 0.041,1.6254 h 19.14284 l 0.0411,-1.6254 z m 0.0813,3.2508 0.041,1.62539 h 18.98434 l 0.0406,-1.62539 z m 0.0853,3.25079 0.0411,1.6254 h 18.82177 l 0.0406,-1.6254 z m 0.004,97.52381 v 1.6254 h 18.82583 v -1.6254 z m 0,-3.25079 v 1.62539 h 18.82583 v -1.62539 z m 0,-3.2508 v 1.6254 h 18.82583 v -1.6254 z m 0,-3.25079 v 1.6254 h 18.82583 v -1.6254 z m 0,-3.2508 v 1.6254 h 18.82583 v -1.6254 z m 0,-3.25079 v 1.6254 h 18.82583 v -1.6254 z m 0.0772,-78.01905 0.0406,1.6254 h 18.66367 l 0.0406,-1.6254 z m 0.0854,3.2508 0.0406,1.62539 h 18.5011 l 0.0406,-1.62539 z m 0.0813,3.25079 0.0406,1.6254 h 18.34218 l 0.041,-1.6254 z m 0.0854,3.25079 0.0406,1.6254 h 18.17961 l 0.0406,-1.6254 z m 0.0813,3.2508 0.0443,1.62539 h 18.01704 l 0.0366,-1.62539 z m 0.0853,3.25079 0.0407,1.6254 h 17.85852 l 0.0366,-1.6254 z m 0.0813,3.2508 0.0443,1.62539 h 17.69595 l 0.0366,-1.62539 z m 0.0854,3.25079 0.0406,1.6254 h 17.53745 l 0.0366,-1.6254 z m 0.0813,3.25079 0.0447,1.6254 h 17.37488 l 0.0366,-1.6254 z m 0.0853,3.2508 0.0411,1.62539 h 17.21597 l 0.037,-1.62539 z m 0.0813,3.25079 0.0447,1.6254 H 432.3724 L 432.409,243.2 Z m 0.0853,3.25079 0.0411,1.6254 h 16.89488 l 0.037,-1.6254 z m 0.0813,3.2508 0.0447,1.62539 h 16.73272 l 0.0366,-1.62539 z m 0.0854,3.25079 0.041,1.6254 h 16.5738 l 0.0366,-1.6254 z m 0.0813,3.25079 0.0447,1.6254 h 16.41164 l 0.0366,-1.6254 z m 0.0853,3.2508 0.0407,1.6254 h 16.25313 l 0.0366,-1.6254 z m 0.0813,3.25079 0.0443,1.6254 h 16.09096 l 0.0366,-1.6254 z m 0.0853,3.2508 0.0406,1.62539 h 15.93205 l 0.0366,-1.62539 z m 0.0813,3.25079 0.0443,1.6254 h 15.76947 l 0.037,-1.6254 z m -63.77291,39.00952 v 1.6254 h 17.34642 v -1.6254 z m 0,-3.25079 v 1.6254 h 17.34642 v -1.6254 z m 0,-3.25079 v 1.62539 h 17.34642 v -1.62539 z m 0,-3.2508 v 0.19505 1.43035 h 17.34642 v -1.6254 z m -21.30099,-3.25079 c -2.91817,0.80863 -5.69002,1.21498 -8.32368,1.21498 v 0.41042 h 46.97109 v -1.6254 z m 8.41716,-3.2508 c -0.67061,0.32102 -1.34122,0.63391 -2.01995,0.93461 -0.54909,0.24421 -1.09736,0.47543 -1.63792,0.69079 h 33.88812 v -1.6254 z m 5.95826,-3.25079 c -0.923,0.56889 -1.85738,1.10933 -2.80843,1.6254 h 27.08042 v -1.6254 z m 4.84871,-3.25079 c -0.76002,0.56076 -1.52817,1.1012 -2.30446,1.62539 h 21.72774 v -1.62539 z m 2.07686,-3.2508 v 1.6254 h 17.34642 v -1.6254 z m 0,-3.25079 v 1.6254 h 17.34642 v -1.6254 z m 0,-3.25079 v 1.62539 h 17.34642 v -1.62539 z m 0,-3.2508 v 1.6254 h 17.34642 v -1.6254 z m 0,-3.25079 v 1.6254 h 17.34642 v -1.6254 z m 0,-3.25079 v 1.62539 h 17.34642 v -1.62539 z m 0,-3.2508 v 1.6254 h 17.34642 v -1.6254 z m 0,-3.25079 v 1.6254 h 17.34642 v -1.6254 z m 0,-3.2508 v 1.6254 h 17.34642 v -1.6254 z m 0,-3.25079 v 1.6254 h 17.34642 v -1.6254 z m 0,-3.25079 v 1.62539 h 17.34642 v -1.62539 z m 0,-3.2508 v 1.6254 h 17.34642 v -1.6254 z m 0,-3.25079 v 1.6254 h 17.34642 V 243.2 Z m 0,-3.25079 v 1.62539 h 17.34642 v -1.62539 z m 0,-3.2508 v 1.6254 h 17.34642 v -1.6254 z m 0,-3.25079 v 1.6254 h 17.34642 v -1.6254 z m 0,-3.25079 v 1.62539 h 17.34642 v -1.62539 z m 0,-3.2508 v 1.6254 h 17.34642 v -1.6254 z m 0,-3.25079 v 1.62539 h 17.34642 v -1.62539 z m 0,-3.2508 v 1.6254 h 17.34642 v -1.6254 z m 0,-3.25079 v 1.6254 h 17.34642 v -1.6254 z m 0,-3.25079 v 1.62539 h 17.34642 v -1.62539 z m 0,-3.2508 v 1.6254 h 17.34642 v -1.6254 z m 0,-3.25079 v 1.6254 h 17.34642 v -1.6254 z m 0,-3.25079 v 1.62539 h 17.34642 v -1.62539 z m -63.19171,94.27301 c 0.32961,0.5567 0.67467,1.10121 1.04086,1.6254 h 60.31013 c 0.60964,-0.45918 1.22335,-0.93867 1.84112,-1.43035 v -0.19505 z m 3.39368,4.608 c 0.0809,0.0894 0.16217,0.1788 0.25199,0.26819 h 53.20573 c 0.76856,-0.52012 1.54037,-1.06057 2.31665,-1.62539 h -56.92863 c 0.37392,0.46323 0.75596,0.91834 1.15426,1.3572 z m 3.80419,3.51899 h 44.48781 c 0.89008,-0.512 1.78463,-1.05245 2.6865,-1.6254 h -49.10079 c 0.61777,0.57295 1.25993,1.1134 1.92648,1.6254 z m 5.35268,3.25079 h 32.73833 c 0.36944,-0.15848 0.7393,-0.32102 1.10549,-0.49168 0.76409,-0.35353 1.5363,-0.73143 2.31218,-1.13372 h -39.15545 c 0.95917,0.6014 1.95899,1.14184 2.99945,1.6254 z m 16.12714,3.22641 c 4.23093,0 8.22573,-0.53272 11.98114,-1.60101 H 305.8096 c 3.5648,1.0687 7.51123,1.60101 11.84378,1.60101 z m -4.9869,-17.85498 h -25.39374 c 0.25199,0.55263 0.51617,1.09714 0.78807,1.6254 h 34.48151 v -0.41042 c -4.07608,0 -7.36817,-0.40635 -9.87584,-1.21498 z m -5.45022,-3.2508 h -21.22783 c 0.18289,0.55264 0.3861,1.09308 0.59745,1.6254 h 22.67066 c -0.72345,-0.47136 -1.40625,-1.01181 -2.04028,-1.6254 z m -2.60928,-3.25079 h -19.58992 c 0.13859,0.55264 0.28897,1.09308 0.45114,1.6254 h 20.27272 c -0.3983,-0.50794 -0.77628,-1.04838 -1.13394,-1.6254 z m -1.59321,-3.25079 h -18.7039 c 0.0931,0.54857 0.20322,1.09308 0.32108,1.62539 h 19.09001 c -0.25605,-0.52419 -0.49584,-1.06463 -0.70719,-1.62539 z m -1.00794,-3.2508 h -18.1918 c 0.065,0.54858 0.13859,1.08902 0.21947,1.6254 h 18.41168 c -0.16298,-0.52419 -0.3093,-1.0687 -0.43935,-1.6254 z m -0.59339,-3.21015 c 0,-0.0118 -0.004,-0.028 -0.004,-0.0406 H 283.5053 c 0.0366,0.54857 0.0813,1.08902 0.13006,1.6254 h 18.02516 c -0.0931,-0.51607 -0.17435,-1.04432 -0.24751,-1.58476 z m -0.35359,-3.29143 h -17.70409 c 0.009,0.54857 0.0284,1.08901 0.0573,1.62539 h 17.80162 c -0.0532,-0.52825 -0.10607,-1.0687 -0.15484,-1.62539 z m -0.21948,-3.2508 h -17.51306 v 1.28813 c 0,0.11378 0,0.22796 0.004,0.33727 h 17.60654 c -0.0366,-0.52825 -0.0691,-1.07276 -0.0975,-1.6254 z m -0.12193,-3.25079 h -17.39113 v 1.6254 h 17.44397 c -0.0244,-0.53232 -0.0406,-1.07277 -0.0528,-1.6254 z m -0.0447,-3.25079 h -17.34643 v 1.62539 h 17.36268 c -0.008,-0.53232 -0.0122,-1.07682 -0.0163,-1.62539 z m -17.34643,-3.2508 v 1.6254 h 17.34643 v -1.6254 z m 0,-3.25079 v 1.6254 h 17.34643 v -1.6254 z m 0,-3.2508 v 1.6254 h 17.34643 v -1.6254 z m 0,-3.25079 v 1.6254 h 17.34643 v -1.6254 z m 0,-3.25079 v 1.62539 h 17.34643 v -1.62539 z m 0,-3.2508 v 1.6254 h 17.34643 v -1.6254 z m 0,-3.25079 v 1.6254 h 17.34643 V 243.2 Z m 0,-3.25079 v 1.62539 h 17.34643 v -1.62539 z m 0,-3.2508 v 1.6254 h 17.34643 v -1.6254 z m 0,-3.25079 v 1.6254 h 17.34643 v -1.6254 z m 0,-3.25079 v 1.62539 h 17.34643 v -1.62539 z m 0,-3.2508 v 1.6254 h 17.34643 v -1.6254 z m 0,-3.25079 v 1.62539 h 17.34643 v -1.62539 z m 0,-3.2508 v 1.6254 h 17.34643 v -1.6254 z m 0,-3.25079 v 1.6254 h 17.34643 v -1.6254 z m 0,-3.25079 v 1.62539 h 17.34643 v -1.62539 z m 0,-3.2508 v 1.6254 h 17.34643 v -1.6254 z m 0,-3.25079 v 1.6254 h 17.34643 v -1.6254 z m 0,-3.25079 v 1.62539 h 17.34643 v -1.62539 z m -24.12567,74.76825 h -18.11458 c 0.13005,0.51606 0.2276,1.06057 0.29669,1.6254 h 17.85812 c 4.1e-4,-0.54857 -0.0118,-1.09308 -0.0402,-1.6254 z m -17.6797,3.93346 c 0,0.32102 -0.008,0.63431 -0.0244,0.94273 h 17.59028 c 0.0573,-0.53638 0.0935,-1.07682 0.11787,-1.6254 h -17.69596 c 0.008,0.2235 0.0122,0.45105 0.0122,0.68267 z m 17.37487,-7.18425 h -19.12659 c 0.31296,0.50387 0.58526,1.04838 0.8088,1.62539 H 259.091 c -0.0528,-0.55263 -0.11787,-1.09308 -0.19509,-1.62539 z m -17.8951,11.37777 h 17.59028 c 0.1138,-0.53231 0.21134,-1.07682 0.29263,-1.62539 h -17.54964 c -0.0813,0.56076 -0.19102,1.1012 -0.33327,1.62539 z m 17.23262,-14.62857 H 236.4934 c 0.58119,0.37384 1.08923,0.75175 1.52411,1.14184 0.1707,0.15482 0.33734,0.31696 0.49585,0.48356 h 20.10161 c -0.11339,-0.55264 -0.23939,-1.09308 -0.38164,-1.6254 z m -18.63074,17.87937 h 18.09019 c 0.18696,-0.53232 0.35359,-1.07683 0.50397,-1.6254 H 240.4439 c -0.2398,0.56889 -0.52023,1.10933 -0.84131,1.6254 z m -11.08334,-21.13016 c 1.80454,0.512 3.39369,1.05244 4.76742,1.6254 h 24.45488 c -0.19102,-0.5567 -0.3983,-1.09715 -0.62184,-1.6254 z m 8.08389,24.38095 h 19.72851 c 0.26783,-0.53232 0.51616,-1.07276 0.74336,-1.6254 h -18.69578 c -0.52429,0.58921 -1.11768,1.12966 -1.77609,1.6254 z M 255.425,265.95556 h -42.07768 c 0.5121,0.10158 1.02827,0.19911 1.55256,0.29663 2.56457,0.47949 4.8162,0.92241 6.7508,1.32876 h 34.70911 c -0.29263,-0.5567 -0.60152,-1.1012 -0.93479,-1.62539 z m -25.80016,30.88254 h 24.78815 c 0.36985,-0.53232 0.71125,-1.07277 1.03233,-1.6254 H 233.9207 c -1.29651,0.64203 -2.73121,1.18654 -4.29596,1.6254 z m 23.87775,-66.64127 c 0.25605,0.18285 0.50804,0.36571 0.75596,0.54857 h 0.92259 v -0.54857 z m -5.21043,-3.2508 c 0.95511,0.52419 1.88177,1.06464 2.77185,1.6254 h 4.11713 v -1.6254 z m -6.8646,-3.25079 c 1.27212,0.51606 2.49954,1.05651 3.68225,1.62539 h 10.07133 v -1.62539 z m -10.02256,-3.2508 c 1.88177,0.43886 3.77573,0.97931 5.67782,1.6254 h 18.09832 v -1.6254 z m -45.23158,-3.25079 c -0.47146,0.53232 -0.91853,1.07276 -1.33715,1.6254 h 34.63188 35.71299 v -1.6254 z m 3.33272,-3.25079 c -0.62183,0.52419 -1.21522,1.06463 -1.78016,1.62539 h 67.45516 v -1.62539 z m 62.78529,-3.2508 h -58.22921 c -0.86976,0.512 -1.70294,1.05651 -2.49141,1.6254 h 63.61033 v -0.256 c -0.91446,-0.47136 -1.8777,-0.93054 -2.88971,-1.3694 z m 0.64216,52.0127 h -52.67738 c 1.21117,0.40229 2.47516,0.78019 3.80012,1.13372 0.62591,0.1666 1.26806,0.3332 1.91835,0.49168 h 48.32451 c -0.42675,-0.56076 -0.88195,-1.10527 -1.3656,-1.6254 z m -74.25474,35.75873 v 1.6254 h 73.14112 c 0.49178,-0.53232 0.95511,-1.07276 1.39405,-1.6254 h -36.05439 z m 70.59687,-39.00952 h -56.64413 c 1.04453,0.57295 2.15814,1.1134 3.34085,1.6254 h 55.30291 c -0.63403,-0.56483 -1.30057,-1.10934 -1.99963,-1.6254 z m -70.59687,43.88571 h 69.70679 c 0.64216,-0.53231 1.2518,-1.07276 1.83706,-1.62539 h -71.54385 z m 64.28908,-95.89841 h -41.92324 c -1.37373,0.49981 -2.67431,1.04025 -3.90986,1.6254 h 51.01914 c -1.62572,-0.57296 -3.35304,-1.1134 -5.18604,-1.6254 z m 0.86976,48.7619 h -56.03855 c 0.67061,0.56483 1.38999,1.10527 2.16221,1.6254 h 56.89205 c -0.95511,-0.57701 -1.959,-1.12152 -3.01571,-1.6254 z m -60.23697,50.38731 h 60.15568 c 0.8657,-0.512 1.69888,-1.05245 2.50361,-1.6254 h -66.35374 c 1.16239,0.55263 2.39387,1.09714 3.69445,1.6254 z m 9.33163,3.25079 h 43.88629 c 1.34935,-0.48762 2.64586,-1.02806 3.88954,-1.6254 h -52.78711 c 1.58914,0.5567 3.25957,1.10121 5.01128,1.6254 z m 41.4721,-56.88889 h -49.77953 c 0.065,0.0813 0.126,0.16254 0.19102,0.23975 0.38205,0.47136 0.79254,0.9346 1.23149,1.38565 h 53.87634 c -1.73139,-0.62172 -3.56846,-1.16622 -5.51932,-1.6254 z M 220.7605,204.25143 c -5.1454,0 -9.90876,0.52013 -14.28194,1.56444 h 29.72627 c -5.2023,-1.04431 -10.35176,-1.56444 -15.44433,-1.56444 z m -6.49881,108.84063 h 2.8572 c 5.14946,-0.0853 9.86812,-0.62577 14.16001,-1.62539 h -32.12827 c 4.71865,1.00368 9.75431,1.54412 15.11106,1.62539 z m 9.86405,-62.26895 c -1.99964,-0.37384 -3.90173,-0.74768 -5.70221,-1.12152 h -35.96904 c 0.30888,0.5567 0.63809,1.09714 0.99169,1.62539 h 43.32542 c -0.84538,-0.16254 -1.72733,-0.32914 -2.64586,-0.50387 z m -17.72441,-4.37232 h -25.45876 c 0.20728,0.55264 0.43488,1.09308 0.6828,1.6254 h 29.70189 c -1.82487,-0.49575 -3.46684,-1.03619 -4.92593,-1.6254 z m -23.70705,-24.38095 h 21.93908 c 1.31277,-0.64609 2.70683,-1.18654 4.18217,-1.6254 h -25.13769 c -0.34953,0.53232 -0.67874,1.07277 -0.98356,1.6254 z m 16.77742,73.14286 h -20.79295 v 1.6254 h 26.40982 c -1.84926,-0.43886 -3.7229,-0.98337 -5.61687,-1.6254 z m 1.35342,-51.91924 c -0.0366,-0.0284 -0.0691,-0.0569 -0.10568,-0.0935 h -20.77263 c 0.13006,0.55263 0.27638,1.09308 0.43895,1.6254 h 22.64627 c -0.83318,-0.48762 -1.56882,-0.99556 -2.20691,-1.53194 z M 181.77168,223.8659 c -0.22353,0.4795 -0.43081,0.96305 -0.6259,1.45473 h 18.83803 c 0.54868,-0.58107 1.17051,-1.12558 1.86957,-1.62539 h -20.00041 c -0.0285,0.0569 -0.0528,0.11378 -0.0813,0.17066 z m 16.39945,16.08331 h -18.79738 c 0.065,0.55263 0.14631,1.09308 0.23979,1.62539 h 19.55741 c -0.38611,-0.50387 -0.71938,-1.04431 -0.99982,-1.62539 z M 180.5524,226.94603 c -0.17477,0.53638 -0.33734,1.08089 -0.47553,1.6254 h 17.75692 c 0.2398,-0.56889 0.52836,-1.10933 0.8657,-1.6254 z m 16.56608,9.75238 h -17.96827 c 0.0122,0.54857 0.0366,1.08902 0.0732,1.6254 h 18.29747 c -0.1707,-0.51606 -0.30076,-1.06057 -0.40236,-1.6254 z m -17.6919,-4.87619 h 17.54152 c 0.0691,-0.56076 0.1707,-1.1012 0.30888,-1.62539 h -17.57809 c -0.10567,0.53638 -0.19915,1.08088 -0.27231,1.62539 z m 17.43178,1.80419 c 0,-0.0609 0,-0.11784 0.004,-0.17879 h -17.61467 c -0.0488,0.53638 -0.0772,1.08089 -0.0894,1.6254 h 17.75286 c -0.0366,-0.46731 -0.0528,-0.95086 -0.0528,-1.44661 z m -5.39739,58.33549 h -12.78222 v 1.6254 h 16.45635 c -1.24774,-0.50793 -2.4711,-1.04838 -3.67413,-1.6254 z m -6.03142,-3.25079 h -6.7508 v 1.6254 h 9.57956 c -0.95918,-0.52013 -1.9021,-1.06057 -2.82876,-1.6254 z m -4.87715,-3.25079 h -1.87365 v 1.62539 h 4.19842 c -0.78847,-0.52419 -1.56069,-1.06463 -2.32477,-1.62539 z m -39.7651,-24.38095 h 17.92762 c 0.0163,-0.53639 0.0244,-1.08089 0.0285,-1.6254 h -17.91543 c -0.004,0.54857 -0.0203,1.08901 -0.0406,1.6254 z m 17.92762,-4.8762 h -17.88698 c 0.0122,0.53639 0.0163,1.07683 0.0163,1.6254 h 17.89511 c 0,-0.54451 -0.008,-1.08901 -0.0244,-1.6254 z m -0.14632,-3.25079 h -17.85446 c 0.0284,0.53638 0.0528,1.07683 0.0691,1.6254 h 17.87479 c -0.0244,-0.54857 -0.0528,-1.08902 -0.0894,-1.6254 z m -17.95607,11.37778 h 17.96014 c 0.0366,-0.53638 0.065,-1.07683 0.0853,-1.6254 h -17.93981 c -0.0285,0.54857 -0.065,1.08902 -0.10568,1.6254 z m -0.32108,3.25079 h 18.01704 c 0.0569,-0.53638 0.10974,-1.08089 0.15038,-1.62539 h -17.98859 c -0.0528,0.54857 -0.1138,1.09307 -0.17883,1.62539 z m 18.00891,-17.87936 h -17.82601 c 0.0528,0.53231 0.0975,1.07682 0.13412,1.62539 h 17.84227 c -0.0406,-0.54857 -0.0935,-1.08901 -0.15038,-1.62539 z m -18.49662,21.13016 h 18.10238 c 0.0813,-0.53638 0.15445,-1.08089 0.22354,-1.6254 h -18.05768 c -0.0813,0.54857 -0.1707,1.09308 -0.26824,1.6254 z m 18.09019,-24.38096 h -17.80569 c 0.0732,0.53232 0.14631,1.07683 0.20728,1.6254 h 17.82195 c -0.065,-0.54451 -0.14225,-1.08902 -0.22354,-1.6254 z M 139.125,274.08254 h 18.22838 c 0.10974,-0.53638 0.20728,-1.07683 0.29669,-1.6254 h -18.15928 c -0.1138,0.55264 -0.23573,1.09308 -0.36579,1.6254 z M 157.33712,243.2 H 139.5233 c 0.10567,0.53232 0.20728,1.07276 0.30076,1.6254 h 17.80976 c -0.0894,-0.54857 -0.18696,-1.08902 -0.2967,-1.6254 z m -19.13878,34.13333 H 156.634 c 0.13818,-0.53638 0.26418,-1.07682 0.38204,-1.62539 h -18.32592 c -0.15038,0.55263 -0.31701,1.09308 -0.49178,1.62539 z m 18.41534,-37.38412 h -17.87072 c 0.15038,0.53231 0.28856,1.07276 0.41862,1.62539 h 17.83821 c -0.12193,-0.5445 -0.24793,-1.08901 -0.38611,-1.62539 z m -19.64276,40.63492 h 18.75268 c 0.1707,-0.53638 0.3292,-1.07683 0.47958,-1.6254 h -18.57791 c -0.20727,0.5567 -0.42268,1.09714 -0.65435,1.6254 z m 18.72829,-43.88572 H 137.7025 c 0.19915,0.52826 0.3861,1.0687 0.56087,1.6254 h 17.91543 c -0.15038,-0.54857 -0.30889,-1.08902 -0.47959,-1.6254 z m -20.34588,47.13651 h 19.24852 c 0.20728,-0.53638 0.40237,-1.07682 0.58932,-1.6254 h -18.97214 c -0.27231,0.5567 -0.56088,1.09715 -0.8657,1.6254 z m 19.22007,-50.3873 h -18.2487 c 0.26011,0.52825 0.50397,1.0687 0.7397,1.6254 h 18.10239 c -0.19102,-0.54858 -0.38611,-1.08902 -0.59339,-1.6254 z m -21.38227,53.63809 h 20.04512 c 0.24792,-0.53231 0.48771,-1.07682 0.71531,-1.62539 h -19.59398 c -0.37392,0.56076 -0.76002,1.1012 -1.16645,1.62539 z m 20.01667,-56.88888 h -18.72423 c 0.34547,0.52419 0.67468,1.06463 0.98763,1.62539 h 18.44785 c -0.2276,-0.54857 -0.46333,-1.08901 -0.71125,-1.62539 z m -22.95923,60.13968 h 21.34163 c 0.2967,-0.53232 0.58526,-1.07683 0.85757,-1.6254 h -20.61006 c -0.5121,0.56889 -1.04046,1.1134 -1.58914,1.6254 z m 21.30506,-63.39048 h -19.58586 c 0.3536,0.3901 0.695,0.79238 1.03233,1.21092 0.10974,0.1341 0.21948,0.27226 0.32515,0.41448 h 19.09001 c -0.27638,-0.55264 -0.56494,-1.09308 -0.86163,-1.6254 z m -25.61321,66.64127 h 23.66641 c 0.35766,-0.53232 0.70312,-1.07276 1.03639,-1.6254 h -22.313 c -0.76815,0.59734 -1.56475,1.13778 -2.3898,1.6254 z m 23.62983,-69.89206 h -21.13842 c 0.66655,0.50387 1.31277,1.04838 1.93461,1.62539 h 20.23614 c -0.32921,-0.54857 -0.67467,-1.08901 -1.03233,-1.62539 z m -32.62819,73.14286 h 30.27902 c 0.43082,-0.53232 0.84944,-1.07277 1.24774,-1.6254 h -25.78797 c -1.79642,0.73955 -3.71071,1.28 -5.73879,1.6254 z m 30.23838,-76.39366 H 122.6524 c 1.16239,0.45918 2.27194,0.99962 3.33679,1.6254 h 22.43899 c -0.3983,-0.55263 -0.81286,-1.09308 -1.24774,-1.6254 z m -35.95685,78.01905 H 76.44945 c 0.008,0.0122 0.0203,0.0203 0.0284,0.0325 0.48366,0.54451 0.97137,1.07683 1.47941,1.59289 h 66.38625 c 0.50804,-0.51606 0.99982,-1.04838 1.48347,-1.59289 0.008,-0.0122 0.0203,-0.0203 0.0284,-0.0325 z m 33.08339,-81.26984 H 77.99389 c -0.5121,0.52419 -1.01608,1.0687 -1.50379,1.6254 h 29.31578 c 1.7192,-0.26413 3.52781,-0.39416 5.41771,-0.39416 1.86551,0 3.64974,0.13003 5.35268,0.39416 h 29.23857 c -0.49178,-0.5567 -0.99169,-1.10121 -1.50786,-1.6254 z m -62.82592,86.14603 h 59.33469 c 0.63403,-0.52012 1.2518,-1.06057 1.86145,-1.62539 H 79.62367 c 0.60558,0.56888 1.22742,1.10933 1.85739,1.62539 z m 59.29811,-89.39682 H 81.51763 c -0.62996,0.51606 -1.2518,1.05651 -1.85738,1.62539 h 62.9763 c -0.60558,-0.56482 -1.22741,-1.10527 -1.85738,-1.62539 z M 86.0412,306.59048 h 50.21847 c 0.83318,-0.50794 1.65011,-1.05245 2.44671,-1.6254 H 83.59043 c 0.7966,0.57295 1.61352,1.11746 2.45077,1.6254 z m 50.18189,-95.89842 H 86.07778 c -0.83725,0.50794 -1.65011,1.04838 -2.44671,1.6254 h 55.03467 c -0.79661,-0.57702 -1.60947,-1.11746 -2.44265,-1.6254 z m -43.63837,99.14921 h 37.15175 c 1.24368,-0.48762 2.45077,-1.02806 3.62129,-1.6254 H 88.95124 c 1.17864,0.59734 2.3898,1.13778 3.63348,1.6254 z m 37.1233,-102.4 H 92.61317 c -1.24368,0.48356 -2.45484,1.024 -3.62942,1.6254 h 44.3415 c -1.17052,-0.59734 -2.37762,-1.14184 -3.61723,-1.6254 z m -18.48443,105.65079 c 4.82026,0 9.31537,-0.54044 13.48534,-1.62539 H 97.64071 c 4.19435,1.08495 8.72198,1.62539 13.58288,1.62539 z m 0,-108.90158 c -4.85277,0 -9.37227,0.54044 -13.5585,1.62539 h 27.01539 c -4.16184,-1.08495 -8.64882,-1.62539 -13.45689,-1.62539 z M 99.69724,295.2127 H 73.8483 c 0.3983,0.55263 0.81286,1.09308 1.23961,1.6254 h 30.37251 c -2.04028,-0.3454 -3.96269,-0.88585 -5.76318,-1.6254 z M 73.88488,222.06984 h 22.43493 c 1.06485,-0.62578 2.18253,-1.16622 3.35711,-1.6254 h -24.5443 c -0.43488,0.53232 -0.84537,1.07277 -1.24774,1.6254 z M 94.02755,291.9619 H 71.68203 c 0.33327,0.55264 0.67468,1.09308 1.03233,1.6254 h 23.71112 c -0.82912,-0.49168 -1.62978,-1.03213 -2.39793,-1.6254 z M 71.72268,225.32063 h 20.20769 c 0.62183,-0.58107 1.26806,-1.12152 1.93867,-1.62539 h -21.1181 c -0.35359,0.53638 -0.69906,1.07682 -1.02826,1.62539 z m 18.8177,63.39048 H 69.88155 c 0.27231,0.54857 0.56087,1.09308 0.85756,1.6254 h 21.38228 c -0.54462,-0.512 -1.07298,-1.05651 -1.58101,-1.6254 z M 69.91813,228.57143 h 19.06562 c 0.10567,-0.14222 0.21134,-0.28038 0.32108,-0.41448 0.33327,-0.41854 0.67874,-0.82082 1.02827,-1.21092 H 70.77569 c -0.29669,0.53232 -0.58526,1.07276 -0.85756,1.6254 z M 88.0327,285.46032 H 68.38589 c 0.2276,0.54857 0.46333,1.09308 0.71125,1.62539 h 20.09389 c -0.40237,-0.52012 -0.78847,-1.06463 -1.15833,-1.62539 z m -19.61836,-53.6381 h 18.43565 c 0.31296,-0.56076 0.6381,-1.1012 0.9795,-1.62539 h -18.7039 c -0.24386,0.53638 -0.48365,1.07682 -0.71125,1.62539 z m 17.75692,50.3873 H 67.15034 c 0.18289,0.54858 0.38204,1.08902 0.58526,1.6254 h 19.29729 c -0.30076,-0.52419 -0.58933,-1.0687 -0.86163,-1.6254 z m -18.99653,-47.1365 h 18.09019 c 0.23573,-0.5567 0.47958,-1.09715 0.7397,-1.6254 H 67.76405 c -0.20728,0.53638 -0.40237,1.07682 -0.58932,1.6254 z m 17.58215,43.88571 H 66.13833 c 0.15038,0.54857 0.31295,1.08902 0.47959,1.6254 H 85.4153 c -0.23167,-0.52826 -0.45114,-1.07276 -0.65842,-1.6254 z M 66.16271,238.32381 h 17.91137 c 0.17476,-0.5567 0.36172,-1.09714 0.55681,-1.6254 H 66.6423 c -0.1707,0.53638 -0.32921,1.07683 -0.47959,1.6254 z m 17.51713,37.38413 H 65.3336 c 0.1138,0.54857 0.24386,1.08901 0.37798,1.62539 h 18.46817 c -0.17476,-0.53231 -0.3414,-1.07276 -0.49991,-1.62539 z M 65.7319,239.94921 c -0.13819,0.53638 -0.26418,1.08089 -0.38204,1.62539 h 17.83007 c 0.13006,-0.55263 0.26825,-1.09308 0.41863,-1.62539 z m 17.14727,32.50793 h -18.1796 c 0.0894,0.54857 0.18696,1.08902 0.29263,1.6254 h 18.25683 c -0.13413,-0.53232 -0.25606,-1.07276 -0.36986,-1.6254 z M 64.71582,244.8254 h 17.80976 c 0.0894,-0.55264 0.19102,-1.09308 0.29669,-1.6254 H 65.00845 c -0.10567,0.53638 -0.20321,1.07683 -0.29263,1.6254 z m 17.57403,24.38095 H 64.22404 c 0.065,0.54451 0.13819,1.08902 0.21948,1.6254 h 18.11457 c -0.0935,-0.53232 -0.18289,-1.07277 -0.26824,-1.6254 z M 64.23624,248.07619 h 17.81788 c 0.061,-0.54857 0.13412,-1.09308 0.20728,-1.6254 H 64.45571 c -0.0813,0.53638 -0.15444,1.08089 -0.21947,1.6254 z m 17.64718,17.87937 H 63.89484 c 0.0406,0.5445 0.0894,1.08901 0.14631,1.62539 h 18.02923 c -0.0691,-0.53638 -0.13006,-1.07682 -0.18696,-1.62539 z M 63.8989,251.32698 h 17.84227 c 0.0406,-0.54857 0.0854,-1.09308 0.13819,-1.62539 H 64.04928 c -0.0569,0.53638 -0.10567,1.07682 -0.15038,1.62539 z m 17.7366,11.37778 H 63.69569 c 0.0203,0.54857 0.0488,1.08902 0.0854,1.6254 h 17.9642 c -0.0407,-0.53638 -0.0772,-1.07683 -0.10974,-1.6254 z m -17.93981,-8.12698 h 17.87072 c 0.0203,-0.54857 0.0406,-1.08902 0.0731,-1.6254 H 63.7851 c -0.0366,0.53638 -0.065,1.07683 -0.0894,1.6254 z m 17.83007,4.87619 H 63.61034 c 0.004,0.54451 0.0122,1.08901 0.0284,1.6254 h 17.92762 c -0.0203,-0.53639 -0.0366,-1.07683 -0.0407,-1.6254 z m -17.91136,-1.6254 h 17.89511 c 0,-0.54857 0.004,-1.08901 0.0163,-1.6254 H 63.63884 c -0.0163,0.53639 -0.0244,1.08089 -0.0244,1.6254 z"
   inkscape:connector-curvature="0"
   style="fill:#ffffff;stroke-width:0.40638953" />
</svg>